<svg width="24" height="24" viewBox="0 0 24 24" fill="none" xmlns="http://www.w3.org/2000/svg">
<path d="M5.75 19.2502H6.25C6.80229 19.2502 7.25 18.8025 7.25 18.2502V5.75C7.25 5.19772 6.80229 4.75 6.25 4.75H5.75C5.19772 4.75 4.75 5.19772 4.75 5.75V18.2502C4.75 18.8025 5.19772 19.2502 5.75 19.2502Z" stroke="currentColor" stroke-width="1.5" stroke-linecap="round" stroke-linejoin="round"/>
<path d="M11.75 19.2502H12.25C12.8023 19.2502 13.25 18.8025 13.25 18.2502V5.75C13.25 5.19772 12.8023 4.75 12.25 4.75H11.75C11.1977 4.75 10.75 5.19772 10.75 5.75V18.2502C10.75 18.8025 11.1977 19.2502 11.75 19.2502Z" stroke="currentColor" stroke-width="1.5" stroke-linecap="round" stroke-linejoin="round"/>
<path d="M17.75 19.2502H18.25C18.8023 19.2502 19.25 18.8025 19.25 18.2502V5.75C19.25 5.19772 18.8023 4.75 18.25 4.75H17.75C17.1977 4.75 16.75 5.19772 16.75 5.75V18.2502C16.75 18.8025 17.1977 19.2502 17.75 19.2502Z" stroke="currentColor" stroke-width="1.5" stroke-linecap="round" stroke-linejoin="round"/>
</svg>
