<svg width="24" height="24" viewBox="0 0 24 24" fill="none" xmlns="http://www.w3.org/2000/svg">
<path d="M19.2496 11.9511L13.1336 17.8601C11.2156 19.7131 8.10602 19.7131 6.18809 17.8601C4.26311 16.0003 4.27121 12.9826 6.20615 11.1325L8.3593 9.07371M8.3593 9.07371L8.85154 8.60305M8.3593 9.07371L11.8504 5.70077C13.1626 4.43292 15.2903 4.43291 16.6025 5.70075C17.9196 6.97323 17.9141 9.038 16.5901 10.3039L13.3525 13.3995M8.3593 9.07371L7.94204 9.47685M13.3525 13.3995L13.719 13.0454M13.3525 13.3995L10.8825 15.7858C10.174 16.4702 9.02543 16.4702 8.31699 15.7858C7.60854 15.1013 7.60854 13.9916 8.317 13.3071L13.0436 8.74068" stroke="currentColor" stroke-width="1.5" stroke-linecap="round" stroke-linejoin="round"/>
</svg>
