<svg width="24" height="24" viewBox="0 0 24 24" fill="none" xmlns="http://www.w3.org/2000/svg">
<path d="M4.75 6.75C4.75 5.64543 5.64543 4.75 6.75 4.75H17.25C18.3546 4.75 19.25 5.64543 19.25 6.75V15.25C19.25 16.3546 18.3546 17.25 17.25 17.25H6.75C5.64543 17.25 4.75 16.3546 4.75 15.25V6.75Z" stroke="currentColor" stroke-width="1.5" stroke-linecap="round" stroke-linejoin="round"/>
<path d="M8 17.5V19.25" stroke="currentColor" stroke-width="1.5" stroke-linecap="round" stroke-linejoin="round"/>
<path d="M16 17.5V19.25" stroke="currentColor" stroke-width="1.5" stroke-linecap="round" stroke-linejoin="round"/>
<path d="M15.25 11C15.25 12.7949 13.7949 14.25 12 14.25C10.2051 14.25 8.75 12.7949 8.75 11C8.75 9.20507 10.2051 7.75 12 7.75C13.7949 7.75 15.25 9.20507 15.25 11Z" stroke="currentColor" stroke-width="1.5" stroke-linecap="round" stroke-linejoin="round"/>
</svg>
