<svg width="24" height="24" viewBox="0 0 24 24" fill="none" xmlns="http://www.w3.org/2000/svg">
<path d="M8.75 4.75H15.25C17.4591 4.75 19.25 6.54086 19.25 8.75V15.25C19.25 17.4591 17.4591 19.25 15.25 19.25H8.75C6.54086 19.25 4.75 17.4591 4.75 15.25V8.75C4.75 6.54086 6.54086 4.75 8.75 4.75Z" stroke="currentColor" stroke-width="1.5" stroke-linecap="round" stroke-linejoin="round"/>
<path d="M8.75 14.25C8.75 14.25 9.67207 15.25 12 15.25C14.3279 15.25 15.25 14.25 15.25 14.25" stroke="currentColor" stroke-width="1.5" stroke-linecap="round" stroke-linejoin="round"/>
<path d="M9.5 10C9.5 10.2761 9.27614 10.5 9 10.5C8.72386 10.5 8.5 10.2761 8.5 10C8.5 9.72386 8.72386 9.5 9 9.5C9.27614 9.5 9.5 9.72386 9.5 10Z" stroke="currentColor"/>
<path d="M12.75 10.25C12.75 10.25 13.2188 9.75 14 9.75C14.7812 9.75 15.25 10.25 15.25 10.25" stroke="currentColor" stroke-width="1.5" stroke-linecap="round" stroke-linejoin="round"/>
</svg>
